<?xml version="1.0" standalone="no"?>
<!DOCTYPE svg PUBLIC "-//W3C//DTD SVG 1.1//EN" "http://www.w3.org/Graphics/SVG/1.1/DTD/svg11.dtd">
<svg xmlns="http://www.w3.org/2000/svg">
<metadata>Copyright (C) 2015 by original authors @ fontello.com</metadata>
<defs>
<font id="fontello" horiz-adv-x="1000" >
<font-face font-family="fontello" font-weight="400" font-stretch="normal" units-per-em="1000" ascent="850" descent="-150" />
<missing-glyph horiz-adv-x="1000" />
<glyph glyph-name="add" unicode="&#xe800;" d="m373 420l-29 0 0-220-210 0 0-30 210 0 0-220 29 0 0 220 210 0 0 30-210 0 0 220z m-33 413l0-289-322 0 0-705 670 0 0 290 323 0 0 704-671 0z m-299-966l0 650 621 0 0-650-621 0z m325 677l0 262 620 0 0-650-298 0 0 388-322 0z" horiz-adv-x="1000" />
<glyph glyph-name="broker" unicode="&#xe801;" d="m576 716c0 72-62 134-134 134-82 0-144-62-144-134 0-41 21-82 52-113l-93 0 0-442 72 0 0-329 206 0 0 329 82 0 0 442-92 0c20 31 51 72 51 113z m-247 0c0 62 52 103 113 103 52 0 103-41 103-103 0-61-51-113-103-113-61 0-113 52-113 113z m257-133l0-391-82 0 0-329-144 0 0 329-72 0 0 391 298 0z m124-453l0 62-31 0 0-62-62 0 0-309 154 0 0 309-61 0z m31-278l-93 0 0 247 93 0 0-247z m-319 689l31 0 0-30-31 0 0 30z m0-41l31 0 0-216-31 0 0 216z" horiz-adv-x="1000" />
<glyph glyph-name="block" unicode="&#xe802;" d="m512 833c-272 0-495-220-495-495 0-276 223-499 495-499 276 0 499 223 499 499 0 276-223 495-499 495z m0-978c-264 0-478 217-478 481 0 264 214 480 478 480 266 0 483-216 483-480 0-264-217-481-483-481z m-365 811l-11-13 745-647 11 12-745 648z" horiz-adv-x="1000" />
<glyph glyph-name="close" unicode="&#xe803;" d="m512 833c-272 0-495-220-495-495 0-276 223-499 495-499 276 0 499 223 499 499 0 276-223 495-499 495z m0-978c-264 0-478 217-478 481 0 264 214 480 478 480 266 0 483-216 483-480 0-264-217-481-483-481z m-209 704l-12-13 435-433 12 12-435 434z m-12-435l13-12 433 435-12 12-434-435z" horiz-adv-x="1000" />
<glyph glyph-name="colapse" unicode="&#xe804;" d="m512 833c-272 0-495-220-495-495 0-276 223-499 495-499 276 0 499 223 499 499 0 276-223 495-499 495z m0-978c-264 0-478 217-478 481 0 264 214 480 478 480 266 0 483-216 483-480 0-264-217-481-483-481z m-305 489l0-17 614 1 0 17-614-1z" horiz-adv-x="1000" />
<glyph glyph-name="expand" unicode="&#xe805;" d="m512 833c-272 0-495-220-495-495 0-276 223-499 495-499 276 0 499 223 499 499 0 276-223 495-499 495z m0-978c-264 0-478 217-478 481 0 264 214 480 478 480 266 0 483-216 483-480 0-264-217-481-483-481z m-305 489l0-17 614 1 0 17-614-1z m299-315l17 0-1 614-17 0 1-614z" horiz-adv-x="1000" />
<glyph glyph-name="approve" unicode="&#xe806;" d="m512 833c-272 0-495-220-495-495 0-276 223-499 495-499 276 0 499 223 499 499 0 276-223 495-499 495z m0-978c-264 0-478 217-478 481 0 264 214 480 478 480 266 0 483-216 483-480 0-264-217-481-483-481z m-70 360l0 0q10-15 24-5l324 210q14 9 5 23l0 0q-10 15-24 5l-324-209q-14-10-5-24z m-94 146l96-149q8-12 20-4l0 0q12 8 4 20l-96 149q-8 12-20 4l0 0q-12-8-4-20z" horiz-adv-x="1000" />
<glyph glyph-name="layer" unicode="&#xe807;" d="m514 312l486 262-484 262-2 0-485-262 483-262 2 0z m0 488l423-226-423-227-422 227 422 226z m265-617l158-86-423-226-422 226 157 86-19 23-201-109 483-262 2 0 486 262-201 109-20-23z m0 233l158-82-423-229-422 229 157 82-19 25-201-107 483-262 2-2 486 264-201 107-20-25z" horiz-adv-x="1000" />
<glyph glyph-name="unblock" unicode="&#xe808;" d="m512 833c-272 0-495-220-495-495 0-276 223-499 495-499 276 0 499 223 499 499 0 276-223 495-499 495z m0-978c-264 0-478 217-478 481 0 264 214 480 478 480 266 0 483-216 483-480 0-264-217-481-483-481z" horiz-adv-x="1000" />
<glyph glyph-name="customer" unicode="&#xe809;" d="m839 257l-2 2c-9 11-30 29-62 42l-3 0c-36 15-66 26-72 29-7 2-12 4-16 6-37 17-41 28-41 30l-3 5 3 2c26 32 43 72 52 108l0 3c9 9 13 20 16 33 6 30 9 53 0 67l0 5c9 39 16 111-27 164-8 8-35 39-89 54l-26 8c-44 16-73 18-75 18-2 0-5 0-8 0l-4-2c-13 2-31-5-36-5-14-7-91-43-117-117-2-11-11-43 0-116l0-2-2 0c-11-16-11-39-2-72 2-13 6-24 13-33l2-5c7-36 24-73 48-106l2-2-2-2c-2-2-2-5-2-5-7-17-75-48-135-68-41-14-61-41-61-41-59-89-68-279-68-286 0-50 24-60 29-60l2-2c133-57 325-68 346-70l6 0c7 0 14 0 18 0l2 0c3 0 5 0 5 0l2 0c8 0 213 13 342 70 11 2 33 12 33 62 0 9-9 199-68 286z m-432 89l5 3 2-3c33-30 68-45 98-45 32 0 68 13 101 41l2 2 6-4c7-4 17-13 22-15l6-2 0-2 3 0c6-5 11-7 20-11 6-5 13-7 19-9 2 0 33-12 70-26l7-2c32-14 48-32 48-33 52-79 60-249 62-269-2-25-8-32-10-34-118-53-297-66-331-71l0 0-3 3c0 0-2 0-4 0l0 0 0 0c-11 0-18-3-25-3l-6 0c-21 3-213 16-337 71-2 0-9 9-11 34 0 0 6 186 63 269 2 1 17 19 48 33 26 6 92 28 126 54 2 3 5 3 5 5 4 2 9 8 14 14l0 0z m-56 227l3 0c3 4 5 9 5 15-12 73-3 103-2 110 22 65 88 96 100 100 3 2 7 2 14 5l0 0 13 0c2 0 5 0 9 0l2 1c1 0 26-3 65-15l27-9c48-15 71-41 74-48 39-43 30-109 20-146 0-4 0-9 2-11l1-2c4-6 4-21-1-50-2-10-7-17-11-24-3-2-5-4-5-6-13-79-82-163-155-163-61 0-133 78-144 163-2 2-2 4-4 6-7 7-8 16-10 26-7 22-7 40-3 48l0 0z m157-262l-35-267 45-68 46 68-36 267-20 0z" horiz-adv-x="1000" />
<glyph glyph-name="employee" unicode="&#xe80a;" d="m513 654c0 0 0 0 0 0l0 0z m318-531l177 0c0 42-33 77-50 83-17 6-37 13-57 17-9 2-22 7-26 12-4 5-2 37-2 37 0 0 0-1 0-1 0 0 0 0 0 0 6 0 55 1 75 19-36 45-15 111-23 167-7 56-38 91-100 91l0 0c-3 0-3 0-3 0-64 0-97-35-104-91-7-56 11-116-23-167 21-19 74-21 74-21 0 0 2-29-2-34-4-6-42-15-42-15-28-5-19-19-19-19 15-2 34-2 54-12 32-16 66-48 71-66l0 0z m3 42c-12 10-23 23-37 32 1 0-18 15-18 15 8 9 24 2 20 42l3 39-34 1c0 0-6 6-21 8-1 1-14 2-15 2 12 35 16 63 16 94-1 19-1 38 1 54 4 50 27 71 78 66l1 0 1 0c45 0 66-23 72-65 2-17 1-37 1-57-1-31-3-63 8-95-22-3-36-5-66-6l3-33c-3-48 18-51 25-56 24-24 84-2 103-55l-120 0c-7 9-11 5-21 14l0 0z m-636-39l-178 0c0 42 33 77 50 82 17 6 38 13 57 18 9 2 22 6 27 12 4 5 2 36 2 36 0 0 0 0 0 0 0 0-1 0-1 0-5 0-54 1-74 19 35 45 15 111 22 167 7 56 39 91 101 91l0 0c2 0 2 0 2 0 64 0 98-35 105-91 7-56-12-116 23-167-21-19-74-21-74-21 0 0-3-29 2-35 4-5 42-14 42-14 28-5 19-19 19-19-15-2-35-2-54-12-33-16-66-48-71-66l0 0z m-4 41c13 11 23 24 37 32 0 1 19 16 19 16-8 9-24 1-20 42l-4 39 35 1c0 0 6 6 20 8 1 0 15 2 16 2-12 34-17 62-16 94 1 19 1 37-1 54-4 50-27 71-78 65l-2 0 0 0c-45 0-66-22-72-65-2-16-2-36-1-56 1-31 2-63-8-95 22-3 36-5 66-6l-3-33c2-48-19-51-25-57-25-24-84-1-103-54l120 0c6 9 11 5 20 13l0 0z m525-6c-25 9-65 12-83 18-13 5-32 10-38 18-7 8-7 62-7 62 0 0 16 15 22 31 6 16 11 60 11 60 0 0 1-1 3-1 5 0 13 3 17 24 5 25 14 38 12 56-2 13-7 15-10 15-2 0-3-1-3-1 0 0 13 19 13 82 0 65-51 129-143 129-93 0-143-64-143-129 0-63 12-82 12-82 0 0-1 1-2 1-4 0-9-2-11-15-2-18 7-31 12-56 4-21 12-24 17-24 2 0 3 1 3 1 0 0 5-44 11-60 7-16 22-31 22-31 0 0 0-54-6-62-7-7-26-13-39-18-17-6-58-9-83-18-24-8-101-44-101-144l615 0c0 100-76 136-101 144z m-466-67c22 22 47 31 50 32 10 3 33 13 48 15 18 2 22 2 35 6 3 1 12 6 16 7 17 6 34 11 46 24 9 11 15 19 16 50 1 16 1 30 1 31l0 16-12 10c-2 2-11 12-14 18-3 7-6 32-8 47-3 25-14 12-23 34-5 12-7 26-10 36-4 11 15 21 10 35-4 14-11 31-11 75 0 46 36 95 115 96 80 0 116-50 116-96 0-44-7-61-12-75-4-14 14-24 11-35-3-11-5-24-10-36-9-22-20-9-23-34-2-15-6-40-9-47-2-6-11-16-13-18l-12-10 0-16c0-1 0-15 0-31 2-31 5-45 15-56 12-13 31-13 48-18 3-2 22-5 24-6 13-5 18-6 35-8 15-2 29-11 40-14 3-1 28-11 50-32 14-14 17-30 22-50l-561-5c5 20 6 40 20 55l0 0z" horiz-adv-x="1000" />
<glyph glyph-name="edit" unicode="&#xe80b;" d="m999 818l0 0c26-27 25-70-2-95l-491-470c-14-13-102-43-135-36-11 32 15 107 42 133l490 470c27 26 70 25 96-2z m-21-20c20-21 5-46-19-69l-442-423c-12-12-90-66-104-50-14 17 30 79 54 103l442 423c36 35 50 35 69 16z m-967 11l0 30 30 0 791 0-31-30-760 0 0-947 947 0 0 763 30 28 0-791 0-30-30 0-947 0-30 0 0 30 0 947z" horiz-adv-x="1000" />
<glyph glyph-name="up" unicode="&#xe80c;" d="m90-128c218 29 386 119 365 466l0 14-251 2 347 399 0 0 25 28 366-424 0 0 4-5-229 2 0-31 0 0c-63-240-144-472-627-451z m-73-18c409-47 673 82 730 469l264-1 0 0-261 303 0 0-174 202-263-302 1 0-174-200-1-1 0 0 0 0 1 0 285-2c31-260-130-437-408-427l0-41z" horiz-adv-x="1000" />
<glyph glyph-name="uparrow" unicode="&#xe80d;" d="m536 753l0 0c0 0 0 0 0 0 0-1 0-1 0-1 0 0 0 0 0 0 1 0 1-1 1-1l441-483c6-7 6-17 1-23l-1 0c-5-5-15-4-21 3l-432 473-453-453c-7-6-17-7-22-1l0 0c-6 5-5 15 1 22l463 462c0 0 0 1 0 1 1 0 1 1 1 1l1 0c2 3 6 4 10 3 1 0 1 0 1 0 3 0 6-1 9-3z m0-327l0 0c0 0 0 0 0 0 0-1 0-1 0-1 0 0 0 0 0 0 1 0 1-1 1-1l441-484c6-6 6-16 1-22l-1 0c-5-5-15-4-21 3l-432 473-453-453c-7-6-17-7-22-1l0 0c-6 5-5 15 1 22l463 462c0 0 0 1 0 1 1 0 1 1 1 1l1 0c2 3 6 4 10 3 1 0 1 0 1 0 3 0 6-1 9-3z" horiz-adv-x="1000" />
<glyph glyph-name="user" unicode="&#xe80e;" d="m839 257l-2 2c-9 11-30 29-62 42l-3 0c-36 15-66 26-72 29-7 2-12 4-16 6-37 17-41 28-41 30l-3 5 3 2c26 32 43 72 52 108l0 3c9 9 13 20 16 33 6 30 9 53 0 67l0 5c9 39 16 111-27 164-8 8-35 39-89 54l-26 8c-44 16-73 18-75 18-2 0-5 0-8 0l-4-2c-13 2-31-5-36-5-14-6-91-43-117-117-2-11-11-43 0-116l0-2-2 0c-11-16-11-39-2-72 2-13 6-24 13-33l2-5c7-36 24-73 48-106l2-2-2-2c-2-2-2-5-2-5-7-17-75-48-135-68-41-14-61-41-61-41-60-89-68-279-68-286 0-50 24-60 29-60l2-2c133-57 324-68 346-70l6 0c7 0 14 0 18 0l2 0c3 0 5 0 5 0l2 0c8 0 213 13 342 70 11 2 33 12 33 62 0 9-9 199-68 286z m-432 89l5 3 2-3c33-30 68-45 98-45 32 0 68 13 101 41l2 2 6-4c7-4 17-13 22-15l6-2 0-2 3 0c6-5 11-7 20-11 6-5 13-7 19-9 2 0 33-12 70-26l7-2c32-14 48-32 48-33 52-79 60-249 62-269-2-25-8-32-10-34-118-53-297-66-331-71l0 0-3 3c0 0-2 0-4 0l0 0 0 0c-11 0-18-3-25-3l-6 0c-22 3-213 16-337 71-3 0-9 9-11 34 0 0 6 186 63 269 2 1 17 19 48 33 26 6 92 28 126 54 2 3 5 3 5 5 4 2 9 8 14 14l0 0z m-56 227l3 0c3 4 5 9 5 15-12 73-3 103-2 110 22 65 88 96 100 100 3 3 7 3 14 5l0 0 13 0c2 0 5 0 9 0l2 1c1 0 26-3 65-15l27-9c48-15 71-41 73-48 40-43 31-109 21-146 0-4 0-9 2-11l1-2c4-6 4-21-1-50-2-10-7-17-11-24-3-2-5-4-5-6-13-79-82-163-155-163-61 0-133 78-144 163-2 2-2 4-4 6-7 7-8 16-10 26-7 22-7 40-3 48l0 0z" horiz-adv-x="1000" />
<glyph glyph-name="view" unicode="&#xe80f;" d="m514 480c-79 0-142-66-142-143 0-79 63-142 142-142 77 0 140 63 140 142 0 77-63 143-140 143z m0-251c-59 0-107 50-107 109 0 59 48 104 107 104 56 0 105-46 105-104 0-59-49-109-105-109z m0 334c-125 0-226-101-226-225 0-124 101-226 226-226 122 0 226 101 226 226 0 126-104 225-226 225z m0-417c-107 0-190 83-190 192 0 104 83 187 190 187 105 0 189-83 189-187 0-109-84-192-189-192z m490 191l0 0c0 4 0 4 0 4l0 0c-41 160-246 278-490 278-246 0-452-118-490-278 0 0 0 0 0-4l0 0c-7-17-7-34-7-52 0-10 7-17 18-17 4 0 7 0 11 4 69-129 253-219 468-219 212 0 397 90 467 219 3-4 7-4 10-4 10 0 20 7 20 17 0 18-3 35-7 52l0 0z m-490-250c-222 0-416 108-455 250 39 140 233 247 455 247 219 0 415-107 453-247-38-142-234-250-453-250z" horiz-adv-x="1000" />
<glyph glyph-name="warning" unicode="&#xe810;" d="m635 708c-31 54-74 84-121 84-46 0-89-30-120-84l-350-603c-32-55-35-113-10-158 25-43 74-67 133-67l694 0c0 0 0 0 0 0 60 0 109 24 133 67 26 45 23 102-9 157l-350 604z m335-747c-20-34-59-53-109-53l-694 0c-49 0-88 20-108 53-21 36-17 84 10 130l349 602c26 45 61 70 96 70 36 0 70-25 96-70l350-603c27-46 30-93 10-129z m-456 261c8 0 15 6 15 14l0 285c0 8-7 14-15 14-8 0-14-6-14-14l0-285c0-8 6-14 14-14z m-1-72c-32 0-57-25-57-57 0-31 25-57 57-57 31 0 57 26 57 57 0 32-26 57-57 57z m0-85c-16 0-29 13-29 28 0 16 13 29 29 29 15 0 28-13 28-29 0-15-13-28-28-28z" horiz-adv-x="1000" />
<glyph glyph-name="filter" unicode="&#xe811;" d="m939 790c0 25-17 43-43 43l-765 0c-21 0-43-18-43-43 0-22 19-39 43-43l276-329 35-555c0-11 8-18 19-24 3 0 7 0 11 0 7 0 13 2 17 6l128 126c4 4 8 10 8 21l0 426 275 329c22 4 41 21 41 43l-2 0z m-335-334c-4-7-9-14-9-19l0-426-125-121-34 551c0 7-5 11-9 19l-289 324 750 2-284-330z" horiz-adv-x="1000" />
<glyph glyph-name="notification" unicode="&#xe812;" d="m949 764l-870 0c-35 0-62-27-62-62l0-538c0-35 27-62 62-62l62 0 0-195 195 195 613 0c35 0 62 27 62 62l0 538c0 35-27 62-62 62z m22-600c0-12-10-21-22-21l-629 0-138-136 0 136-103 0c-11 0-21 9-21 21l0 538c0 11 10 21 21 21l870 0c12 0 22-10 22-21l0-538z" horiz-adv-x="1000" />
<glyph glyph-name="masters" unicode="&#xe813;" d="m994 816l0-412-411 0 0 412 411 0z m-29-383l0 354-353 0 0-354 353 0z m-519 383l0-412-412 0 0 412 412 0z m-29-383l0 354-354 0 0-354 354 0z m577-166l0-411-411 0 0 411 411 0z m-29-382l0 353-353 0 0-353 353 0z m-519 382l0-411-412 0 0 411 412 0z m-29-382l0 353-354 0 0-353 354 0z" horiz-adv-x="1000" />
<glyph glyph-name="list" unicode="&#xe814;" d="m170 782l-145 0 0-35 145 0 0 35z m0-172l-145 0 0-34 145 0 0 34z m0-171l-145 0 0-35 145 0 0 35z m0-172l-145 0 0-34 145 0 0 34z m0-171l-145 0 0-35 145 0 0 35z m0-172l-145 0 0-34 145 0 0 34z m833 858l-754 0 0-35 754 0 0 35z m0-172l-754 0 0-34 754 0 0 34z m0-171l-754 0 0-35 754 0 0 35z m0-172l-754 0 0-34 754 0 0 34z m0-171l-754 0 0-35 754 0 0 35z m0-172l-754 0 0-34 754 0 0 34z" horiz-adv-x="1000" />
<glyph glyph-name="search" unicode="&#xe815;" d="m992-44l-253 253c-11 11-21 15-33 19 45 61 73 137 73 217 0 212-173 380-382 380-208 0-380-168-380-380 0-209 172-377 380-377 86 0 166 29 233 76 4-8 8-20 14-27l252-253c16-16 31-18 51-18 16 0 33 6 45 18 12 12 19 27 19 47 0 20-7 33-19 45z m-936 489c0 188 153 341 341 341 190 0 338-153 338-341 0-92-33-172-92-233 0 0 0 0 0 0 0 0 0 0 0 0-60-64-148-107-246-107-188 0-341 152-341 340z m910-554c-11-11-31-11-39 0l-256 253c-8 12-8 27 0 37 8 8 12 8 19 8 8 0 16 0 20-8l256-250c4-4 6-12 6-20 0-8-4-16-6-20l0 0z" horiz-adv-x="1000" />
<glyph glyph-name="thumpsup" unicode="&#xe816;" d="m969 251c13-15 21-34 21-56 0-31-17-59-43-74 13-15 21-34 21-55 0-32-17-59-42-75 13-15 21-34 21-55 0-48-39-87-87-87l-506 0 0 1c-34 1-65 18-86 43l-143 0c-59 0-108 116-108 259 0 143 49 259 108 259l182 0 164 238 0 108c12 71 65 65 65 65 48 0 65-22 65-22 65-64 65-173 65-173 0-142-65-216-65-216l324 0c48 0 86-38 86-86 0-32-17-59-42-74l0 0z m-844 130c-16 0-76-87-76-229 0-142 57-223 74-223l123-2c-1 4-3 17-3 22-13 62-31 164-31 246 0 88 47 152 64 175l5 11-156 0z m813 0l-434 0 63 59c1 1 65 67 65 190 0 0-10 89-63 140l-3 2c-15 9-62 7-36 7-12 0-23-13-25-24l0-119-205-293-3-3c-18-25-56-75-56-145 0-80 19-183 31-239 6-35 40-75 76-76l522 1c25 0 45 31 45 55 0 12-6 22-11 27l-34 39 46 27c14 8 22 21 22 37 0 12-6 22-11 27l-34 39 45 26c14 8 22 22 22 37 0 13-6 22-11 28l-34 39 46 26c14 8 22 22 22 37 2 48-31 52-45 56z" horiz-adv-x="1000" />
<glyph glyph-name="convert" unicode="&#xe818;" d="m306 418c6 10 2 24-7 29-8 6-22 4-28-5l-84-130c-4 69 12 139 49 200 47 75 121 130 208 149 119 30 245-12 327-104 8-8 22-10 29-2 10 8 10 22 2 30-92 104-233 149-368 117-98-23-181-82-233-168-40-65-59-139-55-214l-92 106c-8 8-22 10-30 2-8-8-10-22-2-30l137-158c0 0 0 0 0 0 2-2 4-2 6-4 0 0 0 0 2-2 2 0 4 0 8 0 0 0 0 0 0 0 0 0 0 0 2 0 0 0 0 0 0 0 0 0 2 0 2 0 0 0 4 0 4 2 2 0 2 0 4 0 2 2 4 4 4 6 2 0 2 0 2 0l113 176z m702-204l-117 173c0 2 0 2 0 2-2 2-4 4-6 4 0 2-2 2-2 2-2 0-4 2-6 2 0 0-2 0-2 0 0 0-2 0-4 0 0 0 0 0 0 0 0 0 0 0 0 0-2 0-4-2-8-2 0 0 0 0 0 0-2-2-4-4-6-6l-133-161c-8-8-6-22 2-29 10-6 23-6 29 3l100 118c-8-147-110-274-257-310-113-27-229 6-313 89-8 7-22 7-30-2-7-8-7-20 0-30 73-70 167-108 265-108 29 0 59 4 88 10 161 39 275 177 288 337l77-115c4-6 12-10 18-10 3 0 7 2 11 4 10 6 12 19 6 29z" horiz-adv-x="1000" />
<glyph glyph-name="settings" unicode="&#xe819;" d="m994 277l0 120-142 23c-9 34-22 66-40 95l84 118-85 85-117-84c-30 18-62 31-96 40l-25 142-120 0-23-142c-34-8-66-22-95-39l-117 83-85-85 82-117c-18-29-31-62-40-96l-141-23 0-120 141-25c9-34 22-67 40-96l-83-117 85-85 117 83c30-18 62-31 96-40l23-141 120 0 26 142c34 8 66 22 95 40l118-84 85 85-85 118c18 29 31 61 40 95l142 25 0 0z m-480-101c-88 0-160 71-160 160 0 88 72 160 160 160 89 0 160-72 160-160 0-89-71-160-160-160z" horiz-adv-x="1000" />
<glyph glyph-name="delete" unicode="&#xe81a;" d="m887 705l-207 0 0 52c0 42-34 76-76 76l-180 0c-41 0-75-34-75-76l0-52-207 0 0-38 54 0 61-753c0-42 34-75 76-75l365 0c42 0 76 33 76 75l60 753 53 0 0 38 0 0z m-501 52c0 21 18 38 38 38l180 0c21 0 38-17 38-38l0-52-256 0 0 52 0 0z m350-841l0-1 0-1c0-21-17-38-38-38l-365 0c-21 0-38 17-38 38l0 1 0 1-61 751 562 0-60-751z m-240 44l0 624 36 0 0-624-36 0z m184 624l-38 0z m0 0l-65-624z m0 0l-28-624z m0 0l0 0z m-294 0l-37 0z m0 0l-10-624z m0 0l28-624z m0 0l0 0z" horiz-adv-x="1000" />
<glyph glyph-name="down" unicode="&#xe81b;" d="m931 792c-218-29-386-119-365-466l0-14 251-1-347-400 0 0-25-28-366 424 0 0-4 5 229-1 0 30 0 0c63 240 144 472 627 451z m73 18c-409 47-673-82-730-469l-264 1 0 0 261-303 0 0 174-202 263 302-1 0 174 200 2 1-1 0 0 0-1 0-285 2c-31 260 130 437 408 427l0 41z" horiz-adv-x="1000" />
<glyph glyph-name="downarrow" unicode="&#xe81c;" d="m493-81l0 0c0 0 0 0 0 0 0 0 0 0 0 0 0 0-1 0-1 1 0 0 0 0-1 1l-440 483c-7 7-7 17-1 22l0 0c6 6 16 4 22-2l432-474 453 453c6 7 16 8 22 2l0 0c6-6 5-16-1-22l-463-463c0 0 0 0-1 0 0-1 0-1-1-2l0 0c-3-2-7-3-11-3 0 0 0 0-1 0-3 0-6 2-8 4z m0 327l0 0c0 0 0 0 0 0 0 0 0 0 0 0 0 0-1 1-1 1 0 0 0 0-1 1l-440 483c-7 7-7 17-1 22l0 0c6 5 16 4 22-2l432-474 453 453c6 7 16 7 22 2l0 0c6-6 5-16-1-22l-463-463c0 0 0 0-1 0 0-1 0-1-1-2l0 0c-3-2-7-3-11-3 0 0 0 0-1 0-3 0-6 2-8 4z" horiz-adv-x="1000" />
<glyph glyph-name="reference" unicode="&#xe81d;" d="m512 833c-272 0-495-220-495-495 0-276 223-499 495-499 276 0 499 223 499 499 0 276-223 495-499 495z m0-978c-264 0-478 217-478 481 0 264 214 480 478 480 266 0 483-216 483-480 0-264-217-481-483-481z m-356 784c-81-197 46-208 126-1l8-1c-13-209 70-214 97 17 38 25 75 21 111 4 34-41 44-88-1-125-46-37-144-118 13-134 136-14 188-130 190-371 79 71 184 162 128 332-24 72 71 101 108 146l28-1c-83-71-131-108-118-142 44-112-8-225-121-341-10-42-47-14-47 1 3 253-30 340-182 361-174 24-40 136 0 160 39 25 11 83-5 104-39 21-76 16-100-9-27-246-123-187-113-30-111-236-202-120-131 33l9-3z m-91-420c-1 42 19 141 54 108 44-43 79-77 169-104 31-9-121-118-103-215-14 0-16-12-14 1 12 82 7 81 109 203 7 9-110 33-166 103-22 28-47-70-40-128-8 2-8-2-9 32z" horiz-adv-x="1000" />
<glyph glyph-name="information" unicode="&#xe81e;" d="m512 850c-281 0-512-227-512-512 0-286 231-517 512-517 286 0 517 231 517 517 0 286-231 512-517 512z m0-1011c-274 0-495 224-495 497 0 273 221 497 495 497 276 0 499-224 499-497 0-273-223-497-499-497z m30 703c0 16-13 28-28 28-15 0-27-12-27-28 0-15 12-27 27-27 15 0 28 12 28 27z m-6-425l0 360-66 0 0-15 22 0 0-345-22 0 0-15 88 0 0 15-22 0z" horiz-adv-x="1000" />
<glyph glyph-name="userprivileges" unicode="&#xe81f;" d="m839 257l-2 2c-9 11-30 29-62 42l-3 0c-36 15-66 26-72 29-7 2-12 4-16 6-37 17-41 28-41 30l-3 5 3 2c26 32 43 72 52 108l0 3c9 9 13 20 16 33 6 30 9 53 0 67l0 5c9 39 16 111-27 164-8 8-35 39-89 54l-26 8c-44 16-73 18-75 18-2 0-5 0-8 0l-4-2c-13 2-31-5-36-5-14-6-91-43-117-117-2-11-11-43 0-116l0-2-2 0c-11-16-11-39-2-72 2-13 6-24 13-33l2-5c7-36 24-73 48-106l2-2-2-2c-2-2-2-5-2-5-7-17-75-48-135-68-41-14-61-41-61-41-60-89-68-279-68-286 0-50 24-60 29-60l2-2c133-57 324-68 346-70l6 0c7 0 14 0 18 0l2 0c3 0 5 0 5 0l2 0c8 0 213 13 342 70 11 2 33 12 33 62 0 9-9 199-68 286z m-432 89l5 3 2-3c33-30 68-45 98-45 32 0 68 13 101 41l2 2 6-4c7-4 17-13 22-15l6-2 0-2 3 0c6-5 11-7 20-11 6-5 13-7 19-9 2 0 33-12 70-26l7-2c32-14 48-32 48-33 52-79 60-249 62-269-2-25-8-32-10-34-118-53-297-66-331-71l0 0-3 3c0 0-2 0-4 0l0 0 0 0c-11 0-18-3-25-3l-6 0c-22 3-213 16-337 71-3 0-9 9-11 34 0 0 6 186 63 269 2 1 17 19 48 33 26 6 92 28 126 54 2 3 5 3 5 5 4 2 9 8 14 14l0 0z m-56 227l3 0c3 4 5 9 5 15-12 73-3 103-2 110 22 65 88 96 100 100 3 3 7 3 14 5l0 0 13 0c2 0 5 0 9 0l2 1c1 0 26-3 65-15l27-9c48-15 71-41 73-48 40-43 31-109 21-146 0-4 0-9 2-11l1-2c4-6 4-21-1-50-2-10-7-17-11-24-3-2-5-4-5-6-13-79-82-163-155-163-61 0-133 78-144 163-2 2-2 4-4 6-7 7-8 16-10 26-7 22-7 40-3 48l0 0z m376-308c0-2 0-4-2-6l-159-182-12 11 159 182c3 3 8 4 11 1 2-2 3-4 3-6z m278 72c0-99-77-158-152-158-22 0-46 5-61 13l-37-73c-1-2-4-4-7-4l-64 0 0-48c0-1 0-2 0-2-1-11-4-14-16-14l-64 0 0-49c0-2 0-3 0-4 0-2 1-6-2-9-3-3-7-3-10-3-1 0-3 0-5 0l-72 0c-13 0-24 11-24 24l0 62c0 6 2 11 6 16l186 212c-2 10-5 26-5 37 0 90 73 164 164 164 90 0 163-74 163-164l0 0z m-311 0c0-8 2-22 5-38 1-3 0-5-2-7l-188-215c-1-1-2-3-2-5l0-62c0-4 3-8 8-8l72 0 0 57c0 4 4 8 8 8l73 0 0 56c0 4 3 8 8 8l67 0 38 76c1 2 3 3 5 4 3 1 5 0 7-1 10-7 34-15 60-15 67 0 136 53 136 142 0 81-66 147-147 147-82 0-148-66-148-147l0 0z m231 27c0-31-25-56-56-56-31 0-57 25-57 56 0 31 26 56 57 56 31 0 56-25 56-56z m-96 0c0-22 18-40 40-40 22 0 40 18 40 40 0 22-18 40-40 40-22 0-40-18-40-40z" horiz-adv-x="1000" />
<glyph glyph-name="folloup" unicode="&#xe820;" d="m81 125l0-269q0-27 27-27l126 0q27 0 27 27l0 269q0 27-27 27l-126 0q-27 0-27-27z m253 123l0-393q0-26 27-26l122 0q26 0 26 26l0 393q0 27-26 27l-122 0q-27 0-27-27z m239 123l0-514q0-28 28-28l133 0q28 0 28 28l0 514q0 28-28 28l-133 0q-28 0-28-28z m255 123l0-638q0-27 28-27l129 0q28 0 28 27l0 638q0 28-28 28l-129 0q-28 0-28-28z m-199 133l67-87 78 247-259-14 67-86c-187-166-361-227-515-241-18-2 264-68 562 181z" horiz-adv-x="1000" />
<glyph glyph-name="logout" unicode="&#xe821;" d="m333 317l567 0-133-134 33-33 167 200-167 200-33-33 133-134-567 0 0-66z m-333 533l867 0 0-33-834 0 0-934 834 0 0-33-867 0 0 1000z" horiz-adv-x="1000" />
<glyph glyph-name="accounts" unicode="&#xe822;" d="m662 333c0 167-136 303-303 303-168 0-303-136-303-303 0-168 135-303 303-303 167 0 303 135 303 303z m-303-237c-131 0-237 106-237 237 0 130 106 237 237 237 131 0 237-107 237-237 0-131-106-237-237-237z m28 270c-44 17-61 27-61 44 0 14 10 29 43 29 37 0 61-12 74-18l15 58c-17 8-40 15-74 17v45h-50v-49c-55-10-86-46-86-91 0-49 37-75 91-93 38-13 54-25 54-44 0-21-19-32-49-32-33 0-63 11-84 23l-15-60c19-11 52-20 86-22v-48h50v52c59 10 91 49 91 94 0 46-25 74-85 95z m419-35c0 168-136 303-303 303-9 0-18 0-27-1 54-18 101-50 137-92 75-40 127-119 127-210 0-91-52-170-127-210-36-41-83-73-137-92 9 0 18-1 27-1 167 0 303 136 303 303z m-165 303c-9 0-18 0-26-1 53-18 100-50 137-92 75-40 126-119 126-210 0-91-51-170-126-210-37-41-84-73-137-92 8 0 17-1 26-1 168 0 303 136 303 303 0 168-135 303-303 303z" horiz-adv-x="1000" />
<glyph glyph-name="agreement" unicode="&#xe823;" d="m979 473l-204 204c-5 4-12 4-17 0l-47-47c-2-2-3-5-3-8 0-3 1-6 3-9l21-20-49-49-182-22-183 22-49 49 21 20c2 3 3 6 3 9 0 3-1 6-3 8l-47 47c-5 4-12 4-17 0l-204-204c-5-5-5-12 0-17l46-47c1 0 1 0 2-1l97-153c6-11 16-29 21-33l203-204c10-9 22-15 34-15 9 0 18 4 24 10l3 3 0-1c12-12 32-14 48-5 17-9 37-7 49 5l0 1 3-3c6-7 15-10 24-10 12 0 24 6 34 15l203 204 116 185 50 49c2 3 3 5 3 9s-1 6-3 8z m-209 163c9 0 16-7 16-16 0-10-7-17-16-17-10 0-17 7-17 17 0 9 7 16 17 16z m-557-15c2 9 11 15 20 13 8-2 14-11 12-20-2-9-10-14-19-13-9 2-15 11-13 20z m411-516c3-3 4-6 2-9l-25-24c0-1-1-1-2-1-2 0-4 1-6 3l-30 29-90 91-25-25c0 0 0 0 0 0l97-98c1-1 4-3 1-5 0 0-19-20-23-24-4-4-9 2-9 2l-100 100c-17 0-33 0-50 0 0 0 1-1 1-1l75-75c3-3 6-6 3-8l-19-20c-2-2-5-1-8 2l-204 203c-6 9-55 92-90 152l146 145 31-32c2-2 5-3 8-3l81-9c-10-10-15-25-13-40l6-44c3-26 25-45 49-42l54 5 174-176c3-3 3-7 0-10l-28-28c-3-3-7-3-10 0l-112 111v-53l116-116z m165 140l-129-129-12 12 36 37c25 24 18 49-15 82l-142 140c0 0 8 6 8 7l-8 26-100-10c0 0-1 0-2 0-3 0-7 4-7 9l-6 44c0 2 0 5 2 7 1 1 2 2 4 3l276 33c3 1 6 2 8 4l32 32 145-146c-35-59-84-142-90-151z" horiz-adv-x="1000" />
<glyph glyph-name="allotment" unicode="&#xe824;" d="m604 645c20-44 64-74 115-74 69 0 126 56 126 126 0 69-57 126-126 126-68 0-122-54-126-120-90-50-147-148-147-254v-69h-119c-13 56-63 98-123 98-69 0-126-56-126-126 0-69 57-126 126-126 60 0 110 42 123 98h119v-84c0-77 29-150 82-204 19-20 42-36 67-50 8-61 60-109 124-109 69 0 126 57 126 126s-57 126-126 126c-54 0-100-34-118-82-12 8-23 17-33 28-42 44-66 102-66 165v84h94c13-56 63-98 123-98 69 0 126 57 126 126 0 70-57 126-126 126-60 0-110-42-123-98h-94v69c0 80 39 153 102 196z m115 176c68 0 124-56 124-124 0-69-56-124-124-124s-124 55-124 124c0 68 55 124 124 124z m-515-593c-68 0-124 56-124 125s56 124 124 124c69 0 124-56 124-124s-55-125-124-125z m515-100c68 0 124-56 124-125 0-68-56-124-124-124s-125 56-125 124c0 69 56 125 125 125z m0 348c68 0 124-55 124-124 0-68-56-124-124-124s-124 56-124 124c0 69 55 124 124 124z" horiz-adv-x="1000" />
<glyph glyph-name="category" unicode="&#xe826;" d="m487-127v127h-190v503h-127v310h317v-310h-64v-70h67v60h310v-310h-310v127h-67v-190h67v63h307v-310h-310z m-287 910v-250h127v-503h190v-127h250v250h-247v-63h-127v250h127v-127h250v250h-250v-60h-127v130h64v250h-257z" horiz-adv-x="1000" />
<glyph glyph-name="communication" unicode="&#xe827;" d="m56 333c0 246 199 445 444 445l0 0c245 0 444-199 444-445l0 0c0-245-199-444-444-444l0 0c-245 0-444 199-444 444l0 0z m138 306c-78-78-127-186-127-306l0 0c0-119 49-227 127-306l0 0c78-78 187-126 306-126l0 0c120 0 228 48 306 126l0 0c78 79 127 187 127 306l0 0c0 120-49 228-127 306l0 0c-78 79-186 127-306 127l0 0c-119 0-228-48-306-127l0 0z m162-560c-14 0-26 12-26 27l0 0v455c0 15 12 26 26 26l0 0h288c14 0 26-11 26-26l0 0v-455c0-15-12-27-26-27l0 0h-288l0 0z m-14 482v-455c0-8 6-15 14-15l0 0h288c8 0 14 7 14 15l0 0v455c0 8-6 15-14 15l0 0h-288c-8 0-14-7-14-15l0 0z m23-383v374h266v-368-6l-266 0 0 0z m260 6v6-6l0 0z m-248 6h242v350h-242v-350l0 0z m92-55c0 15 12 28 27 28l0 0c15 0 27-13 27-28l0 0c0-15-12-27-27-27l0 0c-15 0-27 12-27 27l0 0z m10 0c0-9 8-16 17-16l0 0c9 0 17 7 17 16l0 0c0 9-8 17-17 17l0 0c-9 0-17-8-17-17l0 0z" horiz-adv-x="1000" />
<glyph glyph-name="complaints" unicode="&#xe828;" d="m410 470c3 80 7 157 90 220 47 37 107 53 170 53 130 0 247-80 247-230 0-76-30-116-110-193-74-70-104-97-100-213h-104c0 133 30 166 110 250 77 80 94 96 94 163 0 50-27 133-140 133-150 0-157-133-157-183h-100z" horiz-adv-x="1000" />
<glyph glyph-name="confirm" unicode="&#xe829;" d="m908 322c44 43 31 132-45 132l-200 0c7 42 18 112 18 119-4 63-44 139-46 142-7 14-44 32-81 24-48-10-53-40-53-49 0 0 2-84 2-106-23-50-102-183-126-193-6 4-12 5-19 5h-253c-21 0-38-17-38-38l0-350c1-18 17-33 36-33h227c20 0 37 16 37 36v12c0 0 8 1 12-2 15-9 33-21 56-21h339c127 0 113 113 102 128 21 23 34 64 16 97 14 15 38 55 16 97z m-586-311h-219v349h219v-349z m527 314l-2-9c59-17 28-84-14-88l-2-9c56-14 29-83-15-88l-2-9c46-7 34-85-35-85l-344 0c-25 0-47 28-65 28h-15v268c19 12 43 28 56 39 26 21 128 188 128 208s-2 111-2 111 20 26 65 7c0 0 38-71 42-127 0 0-17-117-26-154h239c59 0 47-84-8-92z" horiz-adv-x="1000" />
<glyph glyph-name="phone" unicode="&#xe82a;" d="m906 96l-135 135c-27 27-71 26-99-1l-68-68c-4 2-9 4-13 7-43 24-102 56-164 118-62 62-94 121-118 164-3 5-5 9-8 13l46 46 22 22c28 28 29 73 2 99l-135 135c-26 27-71 26-99-2l-38-38 1-1c-13-16-23-35-31-55-7-19-12-38-14-56-18-148 50-283 233-466 253-253 457-234 466-233 19 2 37 7 56 14 20 8 39 18 55 31l1-1 38 38c28 28 29 73 2 99z m-32-69l-17-17-6-6c-11-11-29-25-56-36-16-6-31-9-46-11-2 0-194-17-431 221-202 202-235 318-221 431 2 15 5 30 11 46 11 27 25 45 36 56l23 23c11 12 29 13 39 2l135-135c11-10 10-28-2-39l-91-91 9-14c4-8 9-17 15-26 25-46 59-108 125-174 66-66 128-100 173-125 10-5 19-10 27-15l14-9 91 92c11 11 29 12 39 1l135-134c11-11 10-28-2-40z" horiz-adv-x="1000" />
<glyph glyph-name="customeragreement" unicode="&#xe82b;" d="m710 817h-583v-934h816v700l-233 234z m0-84l150-150h-150v150z m173-793h-700v817h467v-234h233v-583z m-290 643h-350v57h350v-57z m-350-116h584v-60h-584v60z m244-177h336v-60h-336v60z m0-173h336v-60h-336v60z m-70-150c-40 16-80 30-87 33-10-3-33-13-90-33l-23-10 33 166c-33 27-53 67-53 107 0 73 60 133 133 133s133-60 133-133c0-40-20-80-50-107l30-170-26 14z m16 0l-26 160c33 23 50 63 50 103 0 70-57 127-127 127-70 0-127-57-127-127 0-43 20-80 57-103l-30-160 13 3c0 0 94 33 94 33 6 0 50-16 90-33l6-3z" horiz-adv-x="1000" />
<glyph glyph-name="customers" unicode="&#xe82c;" d="m846 319c28 19 47 56 47 89 0 47-38 85-85 85-5 0-10-1-15-1 0 0 0 0 0 0-20 31-56 61-101 72 28 19 47 56 47 89 0 47-38 85-85 85s-85-38-85-85c0-33 19-70 47-89-45-11-81-41-101-72-5 0-10 1-15 1-5 0-10-1-15-1-20 31-56 61-101 72 28 19 47 56 47 89 0 47-38 85-85 85-47 0-85-38-85-85 0-33 19-70 47-89-45-11-81-41-101-72 0 0 0 0 0 0-5 0-10 1-15 1-47 0-85-38-85-85 0-33 19-70 47-89-67-17-116-75-116-118 0-25 77-38 154-38l-43 44 36 87h0l-14 17c6-3 14-4 21-4 7 0 14 1 21 4l-14-17h0l36-87-43-44c24 0 48 2 69 4 0 0 0 0 0 0 0-1 0-3 0-4 0-34 19-71 47-89-67-17-116-75-116-118 0-25 77-38 154-38l-43 43 36 88h0l-14 16c7-2 14-4 21-4 7 0 15 2 21 4l-14-16h0l36-88-43-43c77 0 154 13 154 38 0 43-49 101-116 118 28 18 47 55 47 89 0 47-38 85-85 85-5 0-10-1-15-2-19 32-56 62-101 73 28 19 47 56 47 89 0 1 0 3 0 4l0 0c21-2 45-3 69-3l-43 43 36 88h0l-14 16c7-3 14-4 21-4 7 0 14 1 21 4l-14-16h0l36-88-43-43c24 0 48 1 69 3 0-1 0-3 0-4 0-33 19-70 47-89-33-8-62-27-83-49 46-14 79-55 80-105 13-1 27-2 41-2l-43 44 36 87h0l-14 17c7-3 14-4 21-4 7 0 15 1 21 4l-14-17h0l36-87-43-44c14 0 28 1 41 2 1 49 34 91 80 105-21 22-50 41-83 49 28 19 47 56 47 89 0 1 0 3 0 4 21-2 45-3 69-3l-43 43 36 88h0l-14 16c6-3 14-4 21-4 7 0 14 1 21 4l-14-16h0l36-88-43-43c24 0 48 1 69 3v0c0-1 0-2 0-4 0-33 19-70 47-89-45-11-81-41-101-73-5 1-10 2-15 2-47 0-85-38-85-85 0-34 19-70 47-89-67-17-116-75-116-118 0-25 77-38 154-38l-43 43 36 88h0l-14 16c6-2 14-4 21-4 7 0 14 2 21 4l-14-16h0l36-88-43-43c77 0 154 13 154 38 0 43-49 101-116 118 28 18 47 55 47 89 0 1 0 3 0 4 0 0 0 0 0 0 21-2 45-4 69-4l-43 44 36 87h0l-14 17c6-3 14-4 21-4 7 0 14 1 21 4l-14-17h0l36-87-43-44c77 0 154 13 154 38 0 43-49 101-116 118z m-710-107l-4-9 7-6 18-19c-67 4-102 17-105 23 0 37 45 89 105 104l3-4 9-10-33-79z m154-245l-4-9 7-7 18-18c-67 3-102 16-105 23 0 36 45 88 105 104l3-4 9-10-33-79z m196-10c-3-8-38-21-105-24l18 18 7 7-4 9-33 79 9 10 3 4c60-16 105-68 105-103z m-69 206c0-29-17-62-41-78l-6-4-8-2c-5-3-11-4-16-4-5 0-11 1-17 4l-7 2-6 4c-24 16-41 49-41 78 0 39 32 71 71 71 39 0 71-32 71-71z m-100 79c0 0 0 0 0 0-27-9-47-32-54-60-11-2-23-3-36-4l18 19 7 6-4 9-33 79 9 10 3 4c40-10 72-36 90-63z m-95 89l-6-5-8-2c-5-2-11-3-16-3-5 0-11 1-17 3l-7 2-6 5c-24 16-41 48-41 77 0 39 32 71 71 71 39 0 71-32 71-71 0-29-17-61-41-77z m68 126l-4-8 7-7 18-18c-13 0-25 2-36 3-7 28-27 51-54 61 18 26 50 52 90 62l3-3 9-10-33-80z m72 112c-5-2-11-3-16-3-5 0-11 1-17 3l-7 3-6 4c-24 16-41 48-41 77 0 39 32 71 71 71s71-32 71-71c0-29-17-61-41-77l-6-4-8-3z m19-145l18 18 7 7-4 8-33 80 9 10 3 4c40-11 72-37 90-63-27-10-47-33-54-61-11-1-23-3-36-3z m217 33l-4-8 7-7 18-18c-13 0-25 2-36 3-7 28-27 51-54 61 18 26 50 52 90 62l3-3 9-10-33-80z m72 112c-5-2-11-3-16-3-5 0-11 1-17 3l-7 3-6 4c-24 16-41 48-41 77 0 39 32 71 71 71 39 0 71-32 71-71 0-29-17-61-41-77l-6-4-8-3z m19-145l18 18 7 7-4 8-33 80 9 10 3 4c40-11 72-37 90-63 0 0 0 0 0 0-27-10-47-33-54-61-11-1-23-3-36-3z m-91-457l-4-9 7-7 18-18c-67 3-102 16-105 23 0 36 45 88 105 104l3-4 9-10-33-79z m196-10c-3-8-38-21-105-24l18 18 7 7-4 9-33 79 9 10 3 4c60-16 105-68 105-103z m-110 128l-6-4-8-2c-5-3-11-4-16-4-5 0-11 1-17 4l-7 2-6 4c-24 16-41 49-41 78 0 39 32 71 71 71 39 0 71-32 71-71 0-29-17-62-41-78z m68 127l-4-9 7-6 18-19c-13 1-25 2-36 4-7 28-27 51-54 60 18 27 50 53 90 63l3-4 9-10-33-79z m72 112c-5-2-11-3-16-3-5 0-11 1-17 3l-7 2-6 5c-24 16-41 48-41 77 0 39 32 71 71 71s71-32 71-71c0-29-17-61-41-77l-6-5-8-2z m19-146l18 19 7 6-4 9-33 79 9 10 3 4c60-15 105-67 105-103-3-7-38-20-105-24z" horiz-adv-x="1000" />
<glyph glyph-name="dblog" unicode="&#xe82d;" d="m877-83h-754v866h754v-866z m-729 25h704v816h-704v-816z m243 567h-159v159h159v-159l0 0z m-134 25h109v109h-109v-109z m134-194h-159v160h159v-160l0 0z m-134 25h109v110h-109v-110z m134-193h-159v159h159v-159l0 0z m-134 25h109v109h-109v-109z" horiz-adv-x="1000" />
<glyph glyph-name="documenttype" unicode="&#xe82e;" d="m621 470v84l0 0-166 194h-306c-30 0-55-25-55-56v-638c0-30 24-56 55-56h417c30 0 55 26 55 56v56h222c46 0 83 37 83 83v194c0 46-37 83-83 83l-222 0 0 0 0 0z m-28-360v-56c0-15-12-28-27-28h-417c-15 0-28 13-28 28v639c0 15 13 27 28 27h278v-138c0-31 25-56 55-56h111v-56h-222c-46 0-83-37-83-83v-194c0-46 37-83 83-83l222 0 0 0 0 0z m-138 596v-124c0-16 12-28 27-28h103l-130 152 0 0z m-84-263c-30 0-55-25-55-56v-194c0-31 25-56 55-56h472c31 0 56 25 56 56v194c0 31-25 56-56 56h-472l0 0z m361-139v55h111v28h-139v-194h28v83h83v28h-83l0 0z m-361 28v-139h28v83h55c31 0 56 25 56 56 0 30-25 55-56 55h-83v-55l0 0z m28 27v-55h56c15 0 27 12 27 28 0 15-12 27-27 27h-56l0 0z m139 28v-194h83c31 0 56 24 56 56v82c0 31-25 56-56 56h-83l0 0z m28-28v-138h55c15 0 28 12 28 27v84c0 15-12 27-28 27l-55 0 0 0z" horiz-adv-x="1000" />
<glyph glyph-name="excel" unicode="&#xe82f;" d="m632 471v89l0 0-177 207h-325c-33 0-60-27-60-60v-680c0-33 27-59 59-59h444c33 0 59 26 59 59v59h237c49 0 89 40 89 89v207c0 49-40 89-89 89h-237l0 0 0 0z m-29-385v-59c0-16-13-30-30-30h-443c-17 0-30 14-30 30v681c0 16 13 29 29 29h296v-148c0-33 27-59 59-59h119v-59h-237c-49 0-89-40-89-89v-207c0-49 40-89 89-89h237l0 0 0 0z m-148 636v-133c0-16 13-29 29-29h110l-139 162 0 0z m-89-281c-33 0-59-26-59-59v-207c0-33 27-59 59-59h503c33 0 59 26 59 59v207c0 33-26 59-59 59h-503l0 0z m59-162l-59 103h30l44-78 45 78h29l-59-103 59-104h-29l-45 78-44-78h-30l59 104 0 0z m267-74v-30h-148v207h29v-177l119 0 0 0z m89 177c-33 0-60-26-60-59 0-33 26-59 59-59h30c16 0 30-13 30-30 0-16-14-29-30-29h-30c-16 0-29 13-29 29v0h-30v0c0-32 27-59 59-59h30c32 0 59 26 59 59 0 33-26 59-59 59h-29c-17 0-30 13-30 30 0 16 13 30 29 30h30c16 0 30-14 30-30h29c0 33-26 59-59 59h-29l0 0z" horiz-adv-x="1000" />
<glyph glyph-name="facility" unicode="&#xe830;" d="m507 4c-83-12-168 31-168 31s0 57-1 103c0 45-124 56-124 56v-46c0 0 47 19 58 21s10-12 10-12-5-2-2-7c1-7 1-11-8-17-15 0-15 11-15 11l-29-14 51-20c0 0 0-2 2-16-1-9-6-13-10-16-21 3-13 19-13 19l-58 23c0 0-47-19-56-23 0-9-4-14-14-16-14 2-10 16-10 26 2 7 52 24 52 24s-24 10-32 11c-6-7-8-5-18 2-5 17 0 21 4 25 5 3 62-20 62-20s0 44 0 57c-38 4-56 16-74 29-5 20-51 235-47 262 5 36 93 32 136 30 27 5 55-110 55-110l5 8c0 0-8 18-16 56-12 71-68 54-68 54s1 7 0 23c0 34 73 27 111 28 32-5 41-74 41-74s3 2 5 7c-19 91-52 75-62 75-3 8-1 15 3 28 12 19 75 20 91 18 22-7 23-36 29-57 0 7 33 9 33 9s1 39 0 60c5 27 49 32 74 34h-1c25-2 69-7 74-34-1-21 0-60 0-60s33-2 33-9c6 21 7 50 29 57 16 2 79 1 91-18 4-13 6-20 3-28-10 0-43 16-62-75 2-5 5-7 5-7s9 69 41 74c38-1 111 6 111-28-1-16 0-23 0-23s-56 17-68-54c-8-38-16-56-16-56l5-8c0 0 28 115 55 110 43 2 131 6 136-30 4-27-42-242-47-262-18-13-36-25-74-29 0-13 0-57 0-57s57 23 62 20c4-4 9-8 4-25-10-7-12-9-18-2-8-1-32-11-32-11s50-17 52-24c0-10 4-24-10-26-10 2-14 7-13 16-10 4-57 23-57 23l-58-23c0 0 8-16-13-19-4 3-9 7-10 16 2 14 2 16 2 16l51 20-28 14c0 0-1-11-16-11-9 6-9 10-8 17 3 5-1 7-1 7s-1 13 9 12 58-20 58-20v45c0 0-124-11-124-56-1-46-1-103-1-103s-85-43-168-31h7z m-7 213c297 8 320 76 320 76s-195 250-213 268-103 18-103 18h-11c0 0-86 0-104-18s-212-268-212-268 22-68 319-76h4z" horiz-adv-x="1000" />
<glyph glyph-name="facilitytypes" unicode="&#xe831;" d="m267 513v124h130v-124h-130z m123 117h-117v-110h117v110z m7-270v123h-130v-123h130z m-7 7h-117v110h117v-110z m7-164v124h-130v-124h130z m-7 7h-117v110h117v-110z m7-303v273h-130v-273h130z m-7 6h-117v260h117v-260z m493-13v490l-283 67v303l-483-80v-780h766z m-760 773l470 77v-300l284-67v-480h-754v770z m620-443v93h-80v-93h80z m-6 7h-67v80h67v-80z m6-114v94h-80v-94h80z m-6 7h-67v80h67v-80z m6-227v207h-80v-207h80z m-6 7h-67v193h67v-193z" horiz-adv-x="1000" />
<glyph glyph-name="feedback" unicode="&#xe832;" d="m683-50h-483c-37 0-67 30-67 67v633c0 37 30 67 67 67h633c37 0 67-30 67-67v-450-17l-200-233h-17l0 0 0 0z m-516 567v-500c0-19 15-34 33-34h467v167c0 37 30 67 66 67h134v300h-700l0 0 0 0z m0 33v100c0 18 14 33 33 33h633c19 0 34-15 34-33v-100h-700l0 0z m533-550v150c0 18 15 33 33 33h124l-157-183 0 0z m-300 283v-33h233v33h-233l0 0z m-167 34v-100h100v100h-100l0 0z m34-34v-33h33v33h-33l0 0z m133 134v-34h400v34h-400l0 0z m-167 33v-100h100v100h-100l0 0z m34-33v-34h33v34h-33l0 0z m133-267v-33h200v33h-200l0 0z m-167 33v-100h100v100h-100l0 0z m34-33v-33h33v33h-33l0 0z" horiz-adv-x="1000" />
<glyph glyph-name="financialaccounts" unicode="&#xe833;" d="m752 172c7-11 10-24 10-39 0-22-7-40-20-55s-33-24-58-26v-39h-31v38c-42 5-68 29-78 73l49 13c5-28 20-42 46-42 12 0 21 3 26 9s9 13 9 22c0 9-3 15-9 20-5 4-18 10-38 17-17 6-31 12-41 18-9 6-17 14-24 25-6 10-9 23-9 37 0 19 6 36 17 51s28 24 52 27v29h31v-29c36-4 59-25 70-61l-44-18c-9 25-22 37-40 37-9 0-16-2-22-8-5-5-8-12-8-20 0-8 3-14 8-18 5-5 17-10 34-16 19-7 34-14 44-20 11-6 20-15 26-25z m197 10c0-155-126-281-281-281-155 0-280 126-280 281 0 155 125 280 280 280 155 0 281-125 281-280z m-56 0c0 124-101 224-225 224-123 0-224-100-224-224s101-225 224-225c124 0 225 101 225 225z m-393 505h337c15 0 28 9 28 21v42c0 12-13 21-28 21h-337c-15 0-28-9-28-21v-42c0-12 13-21 28-21z m0-112h337c15 0 28 9 28 21v42c0 11-13 21-28 21h-337c-15 0-28-10-28-21v-42c0-12 13-21 28-21z m-421-562h331c-17 26-30 54-38 85h-293c-15 0-28-10-28-21v-43c0-11 13-21 28-21z m337-28h-337c-15 0-28-9-28-21v-42c0-11 13-21 28-21h337c15 0 28 10 28 21v42c0 12-13 21-28 21z m-337 141h286c-3 18-5 37-5 56 0 9 0 19 1 28h-282c-15 0-28-9-28-21v-42c0-12 13-21 28-21z m421 336h41c39 18 82 29 127 29 46 0 89-11 128-29h41c15 0 28 10 28 21v43c0 11-13 21-28 21h-337c-15 0-28-10-28-21v-43c0-11 13-21 28-21z m-421 0h337c15 0 28 10 28 21v43c0 11-13 21-28 21h-337c-15 0-28-10-28-21v-43c0-11 13-21 28-21z m0-224h286c6 30 15 58 29 84h-315c-15 0-28-9-28-21v-42c0-12 13-21 28-21z m0 112h331c10 16 21 30 34 43v20c0 12-13 21-28 21h-337c-15 0-28-9-28-21v-42c0-11 13-21 28-21z" horiz-adv-x="1000" />
<glyph glyph-name="icon-reply" unicode="&#xe834;" d="m610 523h170l-253-253-257 253h173 167z m-167 50h-220c-23 0-40-16-40-40v-170h54v117l260-260c6-7 16-10 26-10s20 3 27 10l260 260v-340h-573v100l-54 0v-113c0-24 17-40 40-40h600c24 0 40 16 40 40v410c0 23-16 40-40 40h-213l-167-4z m-166-306c6 0 10 3 10 10v56c0 7-4 10-10 10h-137v40c0 0-3 0-3 0l-97-76c-3-4-3-7 0-7l97-77c0 0 3 0 3 0v40l137 4 0 0z" horiz-adv-x="1000" />
<glyph glyph-name="icon-resume" unicode="&#xe835;" d="m334-20l-6 6c-4 3-10 11-10 27v667c0 16 6 24 10 28l6 5h8c2 0 12 0 22-5l581-334c11-5 17-16 18-18l6-13-22-22-582-335c-11-6-21-6-23-6h-8z m611 367c0 0-3 6-10 10l-580 333c-7 3-13 3-13 3s-4-3-4-13v-667c0-10 4-13 4-13l0 0c0 0 6 0 13 3l580 334c7 6 10 10 10 10z m-914-387v773h206v-773h-206z m186 753h-166v-733h166v733z" horiz-adv-x="1000" />
<glyph glyph-name="suspend" unicode="&#xe836;" d="m227-87v874h256v-874h-256z m246 867h-240v-860h244v860z m67-867v874h257v-874h-257z m250 867h-243v-860h243v860z" horiz-adv-x="1000" />
<glyph glyph-name="income-and-expense" unicode="&#xe837;" d="m678 535c5 0 9 2 12 5l103 103c7 7 7 17 0 24l-103 103c-3 3-7 5-12 5h-155v18c0 9-8 16-17 16-9 0-16-7-16-16v-18h-259c-7 0-13-4-15-10-3-7-1-14 3-18l92-92-92-92c-4-4-6-11-3-18 2-6 8-10 15-10h259v-34h-156c-4 0-8-2-11-5l-104-103c-6-7-6-17 0-24l104-103c3-3 7-5 11-5h156v-354c0-9 7-16 16-16 9 0 17 7 17 16v354h259c6 0 12 4 15 10 2 7 1 14-4 18l-91 92 91 92c5 4 6 11 4 18-3 6-9 10-15 10h-259v34h155z m64-67l-75-75c-7-7-7-17 0-24l75-75h-401l-87 87 87 87h401z m-471 100l75 75c6 7 6 17 0 24l-75 75h400l87-87-87-87-400 0 0 0z m367 20v17c-10 1-21 4-27 8l5 12c6-4 15-8 24-8 12 0 21 7 21 17 0 10-7 15-20 21-17 7-28 15-28 30 0 14 10 25 26 27v18h10v-17c11 0 18-3 23-6l-4-11c-4 2-11 6-22 6-13 0-18-8-18-15 0-9 6-14 21-20 18-7 27-16 27-31 0-14-10-27-28-30v-18h-10z m-267-286v17c-10 1-20 4-26 8l4 12c6-5 15-8 24-8 13 0 21 7 21 17 0 9-7 15-19 21-18 6-29 15-29 30 0 14 10 25 26 27v18h11v-17c10-1 17-3 22-6l-4-12c-4 2-11 6-22 6-13 0-18-7-18-15 0-8 6-13 21-19 18-7 27-16 27-32 0-13-9-26-27-29v-18h-11z" horiz-adv-x="1000" />
<glyph glyph-name="inventory" unicode="&#xe838;" d="m437 333h-284l-66-103v-283h413v283l-63 103z m53-376h-393v270l60 96h130v-90h-170v-10h353v10h-170v90h130l60-96v-270l0 0z m-273 176h150v-10h-150v10z m650 200h-284l-66-103v-283h413v283l-63 103z m53-376h-393v270l60 96h130v-90h-170v-10h353v10h-170v90h130l60-96v-270l0 0z m-270 176h150v-10h-150v10z m-7 597h-283l-67-103v-284h414v280l-64 107z m54-380h-394v270l60 97h130v-90h-170v-10h354v13h-170v90h130l60-97v-273l0 0z m-274 177h150v-10h-150v10z" horiz-adv-x="1000" />
<glyph glyph-name="inventorytransfer" unicode="&#xe839;" d="m187-10c-47 0-84 37-84 83s37 84 84 84 83-37 83-84-37-83-83-83z m-77 83c0-40 33-76 77-76s76 33 76 76-36 77-76 77-77-33-77-77z m43 0c0-16 14-33 34-33s33 13 33 33-13 34-33 34-34-14-34-34z m404 0c0 50-40 90-90 90-50 0-90-40-90-90s40-90 90-90c53 0 90 40 90 90z m-87 80c43 0 80-36 80-80s-37-80-80-80c-43 0-80 37-80 80s37 80 80 80z m0-43c20 0 33-17 33-33s-16-34-33-34-33 17-33 34 13 33 33 33z m267 27v200h206v-200h-206z m0 203v210h206v-210h-206z m10 200h186v-190h-186v190z m0-213h186v-180h-186v180z m-30-284l6 7 230 23v34h-226v596h-64v-523h-30v37l-23 16-90 467h-343v-380l-124 17-23-17v-237l3-3c0 0 24-20 47-20 0 0 10 0 10 0l0 10c7 67 40 103 97 107 33 0 60-10 76-30 27-30 24-77 24-77l0-7 6-3c0 0 7 0 17 0 13 0 30 3 50 7l7 0 0 6c3 70 50 100 93 100l7 0c33 0 56-10 73-26 30-30 30-80 30-80l0-10h47l3 13 10 3 3 37 27-3 7-64h50z m-660 284l133-17v380h323l90-463 20-17v-40h47v523h43v-593h227v-17l-227-23-6-7h-34l-3 64-47 6 0-40-10-3 0-10h-30c0 0 4 120-120 117-46-4-100-34-103-110-47-10-60-7-60-7s10 113-113 117c-30 0-100-14-107-117-20 0-40 17-40 17v230l17 10z m160 316l10 17h240l13-17 63-303h-326v303z m136-140c-33 0-63 30-63 64s30 63 63 63 64-30 64-63-30-64-64-64z m-56 64c0-30 23-57 56-57s57 23 57 57-23 56-57 56-56-26-56-56z m16-220c-10 0-30 0-40 16-6 10-10 20-10 30v50c0 34 27 60 60 60s60-26 60-60v-50c0-10-3-23-10-30-10-16-26-16-40-16l-20 0z m60 96c0 27-23 50-50 50l0 0c-26 0-50-23-50-50v-50c0-10 4-16 7-26 10-14 23-14 43-14l0 0c17 0 34-3 40 14 4 6 7 16 7 26v50z m-16-53c-4 0-7 0-10 3l-47 34c-10 6-10 20-3 30 3 6 10 10 20 10 3 0 6 0 10-4l46-33c10-7 10-20 4-30-7-7-14-10-20-10z m13 13c3 7 3 14 0 20l-47 34c-6 3-13 0-16-4l0 0c-4-6-4-13 0-20l46-33c4-3 10-3 17 3l0 0z m33-40c-13 0-23 14-23 27 0 7 3 17 7 20 3 3 10 7 16 7l67 0c13 0 23-14 23-27 0-17-10-27-23-27l-67 0z m84 27c0 10-7 17-14 17l-66 0c-7 0-14-7-14-17l0 0c0-10 7-17 14-17l66 0c7 0 14 7 14 17l0 0z m23-53l17 6-4 20-16 20c6 14 10 30 6 37l-3 3-7 4h-3c-3 0-13 0-30-37-7-13-13-33-10-43l3-4 7-3h3c4 0 10 0 24 23l13-26z m-7 83c4 0 0-17-10-37-10-20-16-33-20-33s0 17 10 37c7 20 17 33 20 33z m-6-40l20-17 3-16" horiz-adv-x="1000" />
<glyph glyph-name="invoice" unicode="&#xe83a;" d="m873-77v685c0 6-3 12-7 16l-182 169c-5 4-10 6-16 6h-483c-12 0-22-10-22-22v-854c0-12 10-22 22-22h665c13 0 23 10 23 22z m-666 832h417v-168c0-12 10-22 23-22h181v-620h-621v810z m609-146h-147v137l147-137z m-286-387c-20 22-56 39-109 50v151c31-7 47-27 50-61 0-4 3-7 7-7h64c0 0 0 0 1 0 3 0 7 3 7 7 0 1 0 2 0 3-9 74-52 116-129 123v44c0 4-3 8-7 8h-35c-4 0-8-4-8-8v-44c-39-4-71-19-95-42-25-25-38-58-38-99 0-71 45-117 133-136v-169c-39 10-60 38-64 86-1 4-4 7-8 7h-64c-2 0-4-1-5-2-2-2-2-4-2-6 6-88 54-139 143-151v-43c0-4 4-8 8-8h35c4 0 7 4 7 8v44c43 3 77 20 101 48 26 30 39 65 39 105 0 39-10 70-31 92z m-48-96c0-48-20-76-61-84v157c24-7 39-15 48-25 9-11 13-27 13-48z m-165 226c0 39 18 62 54 71v-140c-15 5-28 12-38 21-11 9-16 26-16 48z" horiz-adv-x="1000" />
<glyph glyph-name="items" unicode="&#xe83b;" d="m760 440c-13 27-47 37-70 20-27-13-37-47-20-70 13-27 47-37 70-20 27 13 33 43 20 70z m-83-47c-10 20-4 47 16 60 20 10 47 4 60-16 10-20 4-47-16-60-24-10-50-4-60 16z m130-73l-10 30 30-3c3 0 3 0 6 3l17 60c0 3 0 3-3 7l-27 13 27 17c3 0 3 3 0 6l-30 57c0 3-4 3-7 3l-30-10 3 30c0 4 0 4-3 7l-60 10c-3 0-3 0-7-3l-13-27-17 23c0 4-3 4-6 0l-54-26c-3 0-3-4-3-7l10-30-30 7c-3 0-3 0-7-4l-16-60c0-3 0-3 3-6l27-14-27-16c-3 0-3-4 0-7l30-57c0-3 3-3 7-3l30 10-7-30c0-3 0-3 3-7l60-16c4 0 4 0 7 3l13 27 17-27c0-3 3-3 7 0l56 30c4 3 7 7 4 10z m-57-27l-20 30c0 0-3 4-3 4-4 0-4 0-4-4l-13-33-53 17 6 33c0 3 0 3-3 3 0 0-3 0-3 0l-34-13-26 50 30 20c0 0 3 3 3 3s0 4-3 4l-34 13 17 53 33-6c4 0 4 0 4 3 0 0 0 3 0 3l-14 34 50 26 20-30c0 0 4-3 4-3s3 0 3 3l13 34 54-17-7-33c0-4 0-4 3-4 0 0 4 0 4 0l33 14 27-50-30-20c0 0-4-4-4-4 0-3 0-3 4-3l33-13-17-54-33 7c-3 0-3 0-3-3 0 0 0-4 0-4l13-33-50-27 0 0z m-717-380h104v524h63v-17h-43v-510h706v207h17v-204h100v-20h-947v20z m360 307l44 223c3 10 10 17 16 17l4 0 26-7c7 0 10-3 14-6 3-4 3-10 3-14l-43-223-64 10z m-76 13l26 147c4 10 10 17 17 17l3 0 27-7c7 0 10-3 13-7 4-3 4-10 4-13l-27-147-63 10z m-77 17l13 70c4 10 10 17 17 17l3 0 27-7c10-3 17-13 17-23l-14-70-63 13z m247 197l-27 6c-7 0-10-3-13-10l-40-216 50-10 40 216c0 7-4 14-10 14z m-94-60l-26 3c-7 0-10-3-14-10l-26-140 50-10 26 140c4 7-3 13-10 17z m-90-64l-26 7c-7 0-10-3-14-10l-13-63 50-14 13 64c0 10-3 16-10 16z m210-403c-10 0-20 7-23 17-7 13 0 30 13 33 4 0 7 3 10 3 10 0 20-6 24-16 6-14 0-30-14-34-3-3-6-3-10-3z m-16 17c3-10 16-14 26-10 10 3 14 16 10 26-3 10-16 14-26 10s-14-16-10-26z m103 20c-10 0-20 6-23 16-4 7-4 14 0 20 3 7 6 14 13 14 3 0 7 3 10 3 10 0 20-7 23-17 4-6 4-13 0-20s-6-13-13-13c-3-3-7-3-10-3l0 0z m-17 16c4-10 17-13 27-10 10 4 13 17 10 27-3 10-17 13-27 10-10-3-16-17-10-27z m-103-6c-3 0-7 3-10 6l-7 14-56 76-20-6-10 23 0 7c0 3 3 3 6 6l30 14 4 0c3 0 6-4 10-7l3-10 127 57 23-57c3-3 0-10-3-13l-70-60 90 40 10-20c3-7 0-10-7-14l-120-56 0 0z m10 40l87 73c0 0 3 3 0 7l-24 50-126-57-7 17c0 3-3 3-7 3l-23-17c-3 0-3-3-3-6l6-14 17 7 53-73 7-7 7-13c0-4 3-4 6-4l4 4 90 40 23 10c3 0 3 3 3 6l-6 14-104-44c-10-10-10-3-3 4z m193 66c-13-3-26 4-30 17l-23 80c-3 13 3 27 17 30l20 7 0 20c0 6 3 10 10 13l60 17c6 3 13 0 16-7l10-13 24 6c13 4 26-3 30-16l23-80c3-14-3-27-17-30l-140-44z m40 127c-20-7-33-27-26-50 6-20 26-33 50-27s33 27 26 50-30 34-50 27z m20-70c-16-7-36 3-43 23-7 17 3 37 23 44 17 6 37-4 44-24 3-20-7-40-24-43z m-16 60c-14-3-24-20-20-33 3-14 20-24 33-20 13 3 23 20 20 33-3 13-20 23-33 20z m60 47l-20-7c-4 0-7 0-10 3l-10 14c0 3-4 3-7 3l-60-17c-3 0-7-3-7-6l0-17c0-3-3-7-6-7l-20-6c-10-4-17-14-14-24l24-80c3-10 13-16 23-13l140 43c10 4 17 14 13 24l-23 80c-3 6-13 13-23 10z m-40-120c-24-7-50 6-57 30-7 23 7 50 30 56 23 7 50-6 57-30 6-23-7-46-30-56z m43 86c-3 0-7 0-7 4 0 3 0 6 4 6 3 0 6 0 6-3 4 0 0-3-3-7z" horiz-adv-x="1000" />
<glyph glyph-name="language" unicode="&#xe83c;" d="m605 91c-55 195-124 385-185 579-1 4-4 8-7 10-5 4-13 4-14 4-1 0-2 0-3 0-49 2-98 0-147-5-1 0-3 0-4-1-2 0-7-2-11-5-2-1-3-3-5-6-88-186-149-386-197-589-2-5-1-9 0-13 3-7 12-12 15-13 2-1 4-1 6-2 40 0 99-2 138-2 5 0 9 2 12 5 5 5 6 13 7 14 0 1 0 2 1 3l24 81c3 11 15 20 26 21 31 2 62 4 93 6 11 1 23-7 28-17 9-22 19-43 29-64 6-10 10-23 13-28 3-3 6-5 10-5 37-8 61-11 94-9 11 0 21 1 22 1 1 0 1-1 2-1 14 0 28 1 41 6 4 2 7 5 9 8 4 6 4 14 4 17 0 1-1 3-1 5z m-41 7c0 0 0 0-1 0-37-6-60-5-92-1-11 2-24 11-29 21-16 30-29 60-42 92-1 4-4 7-6 8-5 3-11 1-12 1-1 0-1 1-1 0-51-2-101-7-152-9-3-1-5-1-7-2-4-2-8-7-10-10-1-2-2-3-2-6-9-28-17-56-26-85-3-10-14-19-26-19-21 1-46 1-67 2-11 0-18 9-15 19 44 176 98 350 173 513 4 10 17 19 28 20 31 2 62 3 93 3 11 0 23-9 26-20 54-169 114-337 164-508 3-11 5-19 4-19z m-226 363c-1 4-3 7-6 9-4 4-11 5-12 5-2 0-3 0-4 0-8 0-16 0-24-3-1 0-2-1-3-1-2-1-7-3-10-7-2-2-4-5-4-8-14-56-30-112-47-167-3-9 0-16 5-20 9-7 19-2 20-2 0 0 1 0 1 0 34 2 68 5 102 7 2 0 3 1 4 1 2 1 5 2 6 2s12 0 18 8c3 4 5 10 3 17-14 54-31 106-49 159z m-11-149c-12-1-24-2-36-3-11-1-17 7-14 18 9 29 17 59 25 89 2 11 5 19 6 19 0 0 3-8 7-18 9-28 18-56 26-85 3-10-3-19-14-20z m256 205c-3-1-6-2-8-3-4-3-9-10-10-16-1-3-1-7 0-10 2-12 5-23 7-35 0-1 0-2 1-3 1-1 1-4 1-7 0-1 0-3 0-5 2-5 3-11 5-17 4-9 8-26 16-31 4-4 9-6 16-5 57 10 117 17 167-5 10-4 9-9-2-10-83-6-170-50-177-138-4-55 28-96 70-128 46-36 108-39 164-27 11 3 20 2 20-2 1-4 1-15 7-21 3-4 7-6 13-6h59c1 0 2 0 3 0 2 1 10 1 16 7 3 3 6 7 6 13 7 115 27 247-32 352-67 120-225 114-342 97z m338-410c-1-11-8-19-16-19s-14 4-14 11c0 3 0 7 0 11 0 8-5 14-11 17-10 4-28-4-38-7-40-12-80-13-120-1-47 14-92 66-83 117 16 86 135 108 205 90 11-2 19 4 23 13 3 10-3 21-4 23-1 2-2 3-3 5-56 69-139 72-221 62-10-1-22 2-24 8-1 4-2 8-3 12 0 1 0 2-1 3 0 1-1 5-1 7 0 2 0 3 0 5-1 2-1 5-2 8-1 5 7 10 18 11 110 12 235 3 280-114 31-80 22-175 15-262z m-108 167c-25 14-54 10-76-6-27-19-33-57-14-83 16-23 51-33 79-29 36 6 51 35 47 64-3 22-15 43-36 54z m-4-66c0-1 0-2-1-2-8-22-39-8-53 1-7 4 0 20 4 24 5 7 16 12 25 12 17-1 29-19 25-35z" horiz-adv-x="1000" />
<glyph glyph-name="parameters" unicode="&#xe83e;" d="m645 320c0 73-55 134-125 143v350h-40v-350c-70-9-125-70-125-143s55-133 125-143v-292h40v292c70 10 125 70 125 143z m-145-105c-58 0-105 47-105 105 0 58 47 106 105 106s105-48 105-106c0-58-47-105-105-105z m395-71c0 73-55 133-125 143v526h-40v-526c-70-10-125-70-125-143 0-73 55-134 125-143v-116h40v116c70 9 125 70 125 143z m-145-106c-58 0-105 48-105 106 0 58 47 105 105 105s105-47 105-105c0-58-47-106-105-106z m-355 537c0 73-55 134-125 143v95h-40v-95c-70-9-125-70-125-143s55-133 125-143v-547h40v547c70 10 125 70 125 143z m-145-105c-58 0-105 47-105 105 0 58 47 106 105 106 58 0 105-48 105-106 0-58-47-105-105-105z" horiz-adv-x="1000" />
<glyph glyph-name="printer" unicode="&#xe83f;" d="m792 660h-584v-20-97h-175v-19-389h136 20v19 214h622v-214-19h20 116 20v408h-175v117z m155-136v-370h-116v234h-662v-20-214h-116v370h155 564 20 155z m-719 19v97h544v-97l-544 0 0 0z m564-544v136 19 195h-584v-20-175-19-136h564 20z m-564 19v117 19 175h544v-175-19-117h-544z" horiz-adv-x="1000" />
<glyph glyph-name="process" unicode="&#xe840;" d="m803 517c0 0-33-7-60-34-3-3-10-10-13-16-23-37-30-47-13-70 13-27 66-97 66-160l-23-247c0 0 3-50 50-50 17 0 27 7 33 13 14 17 17 37 17 37l-10 240c0 40 73 137 73 137l-50 20c17 50-16 110-16 110l-34-90-40 16-13 17 33 77z m-20-100l40-17 10-3 4 10 23 60c7-20 13-47 3-74l-3-10 10-3 37-13c-20-30-67-97-67-134l10-240c0-3-3-20-13-30-7-6-14-10-27-10-33 0-37 30-40 37l23 247 0 0 0 0c0 53-36 110-56 143-7 10-10 17-14 20-10 20-10 23 14 60l0 0c3 3 6 10 10 13 10 10 20 17 30 20l-20-50-4-6 4-7 13-17 13 4 0 0z m7-400c-7-7-10-14-10-20 0-17 13-30 30-30 7 0 17 3 20 10 7 6 10 13 10 20 0 16-13 30-30 30-7-4-13-7-20-10z m40-24c0-3-3-10-7-13-3-3-6-7-13-7-10 0-20 7-20 17 0 3 3 10 7 13 3 4 6 7 13 7 10 3 20-7 20-17z m-440-83c-227 0-340 40-340 120v23c0 90 187 164 223 177 0 0 14 3 17 17 3 10 3 23 0 40-40 43-77 90-77 196v10h354v-10c0-106-37-153-77-193-17-50 10-57 10-60 107-37 230-103 230-177v-23c0-80-113-120-340-120z m107 310c-4 0-34 17-17 73h0c43 47 77 90 77 190h-334c0-100 30-143 77-190 20-50-17-70-23-73-100-37-217-103-217-167 0-16 0-6 0-23 0-90 173-110 330-110 160 0 330 20 330 110 0 17 0 7 0 23 0 67-117 134-223 167z m136 287v10c0 53-20 66-40 73 0 0-3 0-3 0 0 0 0 0 0 0 0 77-53 140-127 163l-3 0h0c-7 0-13 0-23-43v50c0 17-14 30-30 30h-30c-17 0-30-13-30-30v-50c-14 43-20 43-27 43l-3 0 0 0c-77-23-127-90-127-163 0 0-3 0-3 0-20-7-40-20-40-73v-10h486z m-10 10h-466c0 80 43 53 43 70 0 70 50 133 120 156 13 4 37-126 37-126v143c0 10 10 20 20 20h30c10 0 20-10 20-20v-143c0 0 23 133 33 126 73-23 120-83 120-156 0-17 43 10 43-70z" horiz-adv-x="1000" />
<glyph glyph-name="read" unicode="&#xe841;" d="m907-100c0 1 1 2 1 3 0 1 1 2 1 3 0 1 0 2 0 3 1 1 1 2 1 3 0 1 0 1 0 2v518c0 0 0 0 0 0 0 2 0 3-1 5 0 0 0 1 0 1 0 2-1 4-2 6 0 1 0 1-1 2 0 1-1 2-2 4-1 0-1 1-2 1 0 1-1 2-2 3 0 0 0 0 0 0 0 0-1 1-1 1l-379 325c-12 10-28 10-40 0l-379-325c0 0 0-1-1-1 0 0 0 0 0 0-1-1-2-2-2-3-1 0-1-1-2-1-1-2-2-3-2-5-1 0-1 0-1-1-1-2-2-4-2-6 0 0 0-1 0-1-1-2-1-3-1-5 0 0 0 0 0 0v-518c0-1 0-1 0-2 0-1 0-2 1-3 0-1 0-2 0-3 1-1 1-2 1-3 1-1 1-2 1-3 1-1 1-1 2-2 0-1 1-2 2-3 0 0 0-1 1-1 0-1 0-1 0-1 1-1 2-2 3-3 1 0 1-1 2-1 1-1 2-2 4-2 0-1 1-1 1-1 2-1 4-1 5-2 1 0 1 0 1 0 2 0 4-1 7-1h759c2 0 4 1 6 1 0 0 0 0 1 0 1 1 3 1 5 2 0 0 1 1 1 1 2 1 3 1 4 2 1 0 1 1 2 1 1 1 2 2 3 3 0 0 0 1 0 1 1 0 1 1 1 1 1 1 2 2 2 3 1 1 1 1 2 2z m-756 455l193-207-193-168v375z m350-151l297-260h-596l299 260z m156-55l192 206v-374l-192 168z m-157 568l336-288-225-240-89 77c-5 5-12 7-19 7-1 0-3 0-3 0-7 0-14-2-20-7l-90-78-226 241 336 288z" horiz-adv-x="1000" />
<glyph glyph-name="renewal" unicode="&#xe842;" d="m547 707h-20c-10 0-20 6-20 20v0c0 23-20 43-44 43h0c-23 0-43-20-43-43v0c0-10-7-20-20-20h-20c-20 0-37-17-37-37v0c0-20 17-37 37-37h163c20 0 37 17 37 37v0c3 20-13 37-33 37z m-80 0c-10 0-20 10-20 20 0 10 10 20 20 20 10 0 20-10 20-20-4-10-10-20-20-20z m80-720h-310c-27 0-50 23-50 50v596c0 27 20 50 36 50h100c0-3 0-10 0-13 0-33 27-63 64-63h163c33 0 63 26 63 63 0 3 0 7 0 13h77c40 0 63-23 63-50v-373c-3 0-6 0-13 0-17 0-33-3-50-7v294h-433v-497h276c4-23 7-43 14-63z m73 350h-200c-7 0-13 6-13 13v13c0 7 6 14 13 14h200c7 0 13-7 13-14v-13c0-10-6-13-13-13z m0 110h-200c-7 0-13 6-13 13v13c0 7 6 14 13 14h200c7 0 13-7 13-14v-13c0-7-6-13-13-13z m-63-210h-137c-7 0-13 6-13 13v13c0 7 6 14 13 14h137c6 0 13-7 13-14v-13c0-7-3-13-13-13z m-24-114h-113c-7 0-13 7-13 14v13c0 7 6 13 13 13h113c7 0 14-6 14-13v-13c0-7-7-14-14-14z m-146 370l-47-50c-3-3-7-3-10-3-3 0-7 0-7 3l-30 24c-3 3-6 10-3 16 7 0 13 0 20-3l20-17 40 44c3 3 10 6 17 0 3-4 3-10 0-14z m0-110l-47-50c-3-3-7-3-10-3-3 0-7 0-7 3l-30 24c-3 3-6 10-3 16 3 4 10 7 17 4l20-17 40 43c3 4 10 7 16 0 7-10 7-16 4-20z m0-106l-47-50c-3-4-7-4-10-4-3 0-7 0-7 4l-30 23c-3 3-6 10-3 17 3 3 10 6 17 3l23-20 40 43c3 4 10 7 17 0 3-3 3-10 0-16z m0-107l-47-50c-3-3-7-3-10-3-3 0-7 0-7 3l-30 23c-3 4-6 10-3 17 3 3 10 7 17 3l20-16 40 43c3 3 10 7 16 0 7-7 7-13 4-20z m346 53c-90 0-160-73-160-160s74-160 160-160c90 0 160 74 160 160s-73 160-160 160z m107-180h-90v-93h-27v93h-90v24h90v93h27v-93h90v-24z" horiz-adv-x="1000" />
<glyph glyph-name="report" unicode="&#xe843;" d="m846 0h-56v38c0 2-2 4-4 4s-4-2-4-4v-38h-70v38c0 2-2 4-4 4-2 0-4-2-4-4v-38h-71v38c0 2-1 4-3 4-3 0-4-2-4-4v-38h-71v38c0 2-2 4-4 4-2 0-4-2-4-4v-38h-70v38c0 2-2 4-4 4s-4-2-4-4v-38h-71v38c0 2-1 4-4 4-2 0-4-2-4-4v-38h-70v38c0 2-2 4-4 4s-4-2-4-4v-38h-70v38c0 2-2 4-4 4s-4-2-4-4v-38h-143v89h32c2 0 4 2 4 4 0 2-2 4-4 4h-32v70h32c2 0 4 2 4 4s-2 4-4 4h-32v70h32c2 0 4 2 4 4 0 2-2 4-4 4h-32v71h32c2 0 4 2 4 4s-2 4-4 4h-32v70h32c2 0 4 2 4 4 0 2-2 4-4 4h-32v70h32c2 0 4 2 4 4 0 3-2 4-4 4h-32v71h32c2 0 4 2 4 4 0 2-2 4-4 4h-32v70h32c2 0 4 2 4 4 0 2-2 4-4 4h-32v64c0 7-5 12-11 12-7 0-12-5-12-12v-721c0-6 5-12 12-12h766c6 0 12 6 12 12 0 7-6 12-12 12z m-405 364c-10 14-19 29-25 44h-55v-325h80v281z m169-79c-3 0-5 0-8 0-25 0-50 5-73 13v-215h81l0 202 0 0z m176-48l-77 78c-1 0-2-1-3-1v-231h80v154z m207-15l-217 220c55 70 50 172-14 236-70 70-184 70-254 0-69-69-69-183 0-253 65-64 166-69 237-15l217-220c8-9 23-9 31 0 9 9 9 23 0 32z m-263 235c-52-52-137-52-190 0-52 52-52 137 0 190 53 52 138 52 190 0 52-53 52-138 0-190z m-88 114c-21 8-27 14-27 23 0 7 6 16 21 16 14 0 23-5 27-7 1-1 2-1 4-1 1 1 1 1 2 3l6 15c0 2 0 4-2 5-8 5-18 7-28 8v19c0 2-2 4-4 4h-15c-2 0-4-2-4-4v-20c-21-5-35-21-35-41 0-24 20-35 41-44 17-7 24-14 24-24 0-11-10-19-24-19-11 0-22 4-31 10-1 0-2 1-3 0-2 0-3-1-3-2l-5-16c-1-1 0-3 1-4 8-6 21-10 34-11v-20c0-2 2-4 4-4h14c3 0 4 2 4 4v21c22 5 37 22 37 43 0 21-11 35-38 46z" horiz-adv-x="1000" />
<glyph glyph-name="resume" unicode="&#xe845;" d="m397 627l523-310-523-304v614z m10-20v-580l493 290-493 290z m-310-617v647h233v-647h-233z m223 637h-213v-627h213v627z" horiz-adv-x="1000" />
<glyph glyph-name="return" unicode="&#xe846;" d="m927 527c-39 0-51-79-51-79l-24-84-23-74h1l-23-77h-129-178-138l-10 77-9 74-10 84-8 79c0 0-1 0-2 0l0 0c0 0-9 73-13 104-5 30-81 68-245 145-38 16-70-54 0-91l129-60c0 0 30-18 33-41 2-23 55-411 55-411s2-54 51-54c49 0 450 0 491 0s49 43 49 43l98 289c0 0 29 76-44 76z m-449 17c3-1 6-2 8-1 3 0 5 1 6 3l68 59c12-13 24-27 34-41 20-27 36-55 46-85 11-30 15-62 7-94-8-31-30-61-57-84 32 14 64 37 85 72 22 34 29 76 28 116-2 41-11 80-24 117-9 26-19 50-32 75l74 64c4 3 5 8 4 13-2 5-6 8-11 9l-164 11c-34 3-65-24-67-58l-12-164c0-5 3-10 7-12z" horiz-adv-x="1000" />
<glyph glyph-name="services" unicode="&#xe847;" d="m636 29l187 165m28 432l38-256m-173 336l-388 7m-206-342l85 269m266-641l-303 195m291 54l83-186m-56 258l298-22m-23 328l-275-226m-100 24l-97 216m-74-342l110 11m-162 508h162v-177h-162v177z m551-15h162v-176h-162v176z m73-431h162v-177h-162v177z m-462 53h163v-176h-163v176z m146-362h163v-176h-163v176z m-416 309h163v-177h-163v177z" horiz-adv-x="1000" />
<glyph glyph-name="stock" unicode="&#xe848;" d="m623-83h-213-31-170v433h-31v-464h676v464h-31v-433h-170l-30 0 0 0z m-269 74c0-32-26-58-58-58s-58 26-58 58c0 32 26 58 58 58s58-26 58-58z m73 108c0-32-26-58-58-58-32 0-58 26-58 58 0 33 26 59 58 59 32 0 58-26 58-59z m68-112c0-33-26-59-58-59-32 0-58 26-58 59 0 32 26 58 58 58 32 0 58-26 58-58z m146-2c0-33-26-59-58-59-32 0-58 26-58 59s26 58 58 58c32 0 58-26 58-58z m140 1c0-32-26-58-58-58-32 0-58 26-58 58s26 58 58 58c32 0 58-26 58-58z m-207 112c0-33-26-59-58-59-32 0-58 26-58 59s26 58 58 58c32 0 58-26 58-58z m133 4c0-32-26-59-58-59-32 0-59 27-59 59s27 58 59 58c32 0 58-26 58-58z m-204 109c0-33-26-59-59-59-32 0-58 26-58 59 0 32 26 58 58 58s59-26 59-58z m137-1c0-33-26-59-58-59s-59 26-59 59 27 58 59 58 58-26 58-58z m-66 103c0-32-26-58-58-58-32 0-58 26-58 58 0 33 26 59 58 59 32 0 58-26 58-59z m386 22l-444 439-444-439 21-22 423 418 423-418 21 22z" horiz-adv-x="1000" />
<glyph glyph-name="store" unicode="&#xe849;" d="m7-80v103h60v524h-34v80l470 113 467-110v-83h-27l0-520h57v-104h-993z m976 10v83h-56l0 544h26v63l-450 107-460-110v-60h34v-544h-60v-83h966z m-870 457v196h240v-196h-240z m227 10v176h-217v-176h217z m-27 23v107h-166v-107h166z m-10 10v87h-143v-87h143z m47-253v196h-237v-196h237z m-227 10v176h220v-176h-220z m37 33v87h147v-87h-147z m190-263v196h-237v-196h237z m-227 10v176h220v-176h-220z m37 36v87h147v-87h-147z m737-46v196h-240v-196h240z m-230 10v176h220v-176h-220z m36 36v87h147v-87h-147z m194 174v196h-240v-196h240z m-230 10v176h220v-176h-220z m36 33v87h147v-87h-147z m-313-267v640h240v-640h-240z m230 10v620h-220v-620h220z m37 434v196h240v-196h-240z m230 10v176h-220v-176h220z" horiz-adv-x="1000" />
<glyph glyph-name="terminate" unicode="&#xe84a;" d="m650 543l3-343 20 17c0 0 0 13 0 83 37 63 70 0 70 0 17-263-143-283-143-283l-7 0h-210c-36 0-90 100-90 100v376c37 67 70 0 70 0s0-150 0-186c10-17 27-4 27-4s0 210 0 280c37 60 70 4 70 4s0-200 0-247c10-23 23 0 23 0s0 157 0 240c40 70 74 0 74 0s0-217 0-240c6-17 20-3 20-3s0 100 0 206c43 74 73 0 73 0z m280-50v-356l-253-254h-354l-253 254v356l253 254h357l250-254z m-67-20l-216 217h-304l-216-217v-303l216-217h304l216 217v303z" horiz-adv-x="1000" />
<glyph glyph-name="thirdaprty" unicode="&#xe84b;" d="m534 745c0-40-26-88-57-88s-57 48-57 88 26 73 57 73 57-33 57-73z m-80-863h-54l-18 382h82l-10-382z m95 0h-55l-7 382h82l-20-382z m35 382h-221v354l30 17 46 7 15-94 23-25 22 24 19 95 33-4 33-17v-357z m-120 347h22l9-68-18-20-19 20 6 68z m120 8c0 0 75-89 89-162 0-68 0-144 0-144h-43l-2 97c0 0-16 87-44 96 0 28 0 113 0 113z m-221-3c0 0-75-57-80-49-2 8 32 102 40 110 14 17-17 75-62-7-45-81-79-160-53-175 15-11 91 3 155 37 0 77 0 84 0 84z m210-370h228v-193h-228v193z m21 36v-3-32h28v18l59 2v-20h23v42h-110v-7z" horiz-adv-x="1000" />
<glyph glyph-name="transferhistory" unicode="&#xe84c;" d="m405 49c44 0 79-35 79-79 0-44-35-79-79-79-44 0-79 35-79 79 0 44 35 79 79 79z m320 0c44 0 80-35 80-79 0-44-36-79-80-79s-79 35-79 79c0 44 36 79 79 79z m202 447c-39 0-51-79-51-79l-24-84-23-74h1l-23-78h-129-178-138l-10 78-9 74-10 84-8 79c0 0-1 0-2-1l0 1c0 0-9 73-13 104-5 30-81 68-245 145-38 16-70-54 0-91l129-60c0 0 30-18 33-41 2-23 55-411 55-411s2-54 51-54c49 0 450 0 491 0 41 0 49 43 49 43l98 289c0 0 29 76-44 76z m-292 95c9-20 29-34 52-34 32 0 58 26 58 58 0 31-26 57-58 57-30 0-55-24-57-55-41-23-67-67-67-115v-32h-55c-6 26-29 45-56 45-32 0-57-26-57-58 0-32 25-57 57-57 27 0 50 19 56 44h55v-38c0-36 13-69 37-93 9-9 19-17 31-23 3-28 27-50 56-50 32 0 58 26 58 58 0 31-26 57-58 57-24 0-45-15-53-37-6 3-11 8-15 12-20 20-31 47-31 76v38h43c6-25 29-44 56-44 32 0 58 25 58 57 0 32-26 58-58 58-27 0-50-19-56-45h-43v32c0 36 18 69 47 89z m52 80c32 0 57-25 57-56s-25-57-57-57c-31 0-56 25-56 57s25 56 56 56z m-235-271c-31 0-57 26-57 57s26 57 57 57 57-25 57-57-26-57-57-57z m235-46c32 0 57-25 57-56 0-32-25-57-57-57-31 0-56 25-56 57 0 31 25 56 56 56z m0 160c32 0 57-26 57-57s-25-57-57-57-56 26-56 57 25 57 56 57z" horiz-adv-x="1000" />
<glyph glyph-name="verification" unicode="&#xe84d;" d="m508 779h-22c-12 0-22 9-22 21v1c0 27-22 49-49 49h-1c-28 0-50-22-50-49v-1c0-12-9-21-21-21h-22c-23 0-42-19-42-43v-1c0-23 19-42 42-42h187c23 0 42 19 42 42v1c0 24-19 43-42 43z m-94 0c-11 0-21 9-21 21s10 21 21 21 22-9 22-21-10-21-22-21z m96-829h-360c-32 0-57 26-57 57v686c0 31 25 57 43 57h116c-1-5-2-10-2-15 0-39 32-71 71-71h187c39 0 71 32 71 72 0 5-1 10-2 14h87c46 0 72-26 72-57v-429c-5 0-10 0-15 0-19 0-38-2-57-7v336h-500v-572h330c1-25 7-49 16-71z m211 271c-102 0-185-83-185-185s83-186 185-186 186 83 186 186-83 185-186 185z m122-147l-114-129c-6-6-14-9-22-9-6 0-12 2-18 6l-71 57c-12 10-14 28-5 40 10 13 28 15 41 5l50-40 96 108c11 12 29 13 40 2 12-10 13-28 3-40z m-250 276h-229c-8 0-14 6-14 14v15c0 8 6 14 14 14h229c8 0 14-6 14-14v-15c0-8-6-14-14-14z m0 129h-229c-8 0-14 6-14 14v14c0 8 6 14 14 14h229c8 0 14-6 14-14v-14c0-8-6-14-14-14z m-72-243h-157c-8 0-14 6-14 14v14c0 8 6 15 14 15h157c8 0 15-7 15-15v-14c0-8-7-14-15-14z m-28-129h-129c-8 0-14 7-14 14v15c0 8 6 14 14 14h129c8 0 14-6 14-14v-15c0-7-6-14-14-14z m-170 424l-53-59c-3-3-6-4-10-4-3 0-6 1-8 3l-33 26c-6 5-6 13-2 19 5 5 13 6 19 2l23-19 44 50c5 5 13 6 19 1 5-5 6-13 1-19z m0-127l-53-59c-3-3-6-4-10-4-3 0-6 1-8 3l-33 26c-6 4-6 13-2 18 5 6 13 7 19 2l23-18 44 50c5 5 13 6 19 1 5-5 6-13 1-19z m0-121l-53-59c-3-3-6-5-10-5-3 0-6 1-8 3l-33 26c-6 5-6 13-2 19 5 6 13 6 19 2l23-19 44 50c5 6 13 6 19 1 5-4 6-13 1-18z m0-123l-53-59c-3-3-6-4-10-4-3 0-6 1-8 3l-33 26c-6 5-6 13-2 18 5 6 13 7 19 3l23-19 44 50c5 5 13 6 19 1 5-5 6-13 1-19z" horiz-adv-x="1000" />
</font>
</defs>
</svg>
